<?xml version="1.0" standalone="no"?>
<!DOCTYPE svg PUBLIC "-//W3C//DTD SVG 20010904//EN"
 "http://www.w3.org/TR/2001/REC-SVG-20010904/DTD/svg10.dtd">
<svg version="1.0" xmlns="http://www.w3.org/2000/svg"
 width="500.000000pt" height="500.000000pt" viewBox="0 0 500.000000 500.000000"
 preserveAspectRatio="xMidYMid meet">
<metadata>
Created by potrace 1.11, written by Peter Selinger 2001-2013
</metadata>
<g transform="translate(0.000000,500.000000) scale(0.100000,-0.100000)"
fill="#000000" stroke="none">
<path d="M2168 4975 c-536 -73 -1012 -306 -1402 -685 -222 -216 -368 -415
-505 -691 -122 -244 -200 -500 -236 -772 -20 -157 -20 -497 0 -654 59 -447
246 -884 532 -1238 96 -119 294 -314 414 -407 351 -274 803 -458 1248 -509
163 -18 555 -7 711 21 518 92 998 349 1366 732 191 199 323 387 444 633 179
364 250 675 250 1095 0 313 -30 507 -121 785 -175 535 -554 1018 -1039 1326
-300 190 -652 318 -1003 364 -146 19 -520 19 -659 0z m612 -292 c406 -51 795
-217 1115 -476 44 -36 128 -114 186 -173 569 -586 765 -1442 509 -2224 -75
-229 -182 -436 -327 -633 -96 -130 -308 -341 -441 -440 -388 -287 -838 -436
-1319 -437 -482 0 -938 150 -1328 437 -110 82 -350 320 -429 427 -407 547
-544 1225 -381 1877 158 625 586 1155 1160 1434 399 194 817 264 1255 208z"/>
<path d="M3580 3169 c-237 -27 -528 -121 -760 -245 -121 -65 -286 -176 -421
-282 -150 -117 -235 -172 -378 -242 -333 -165 -727 -268 -1306 -341 -93 -11
-171 -22 -173 -23 -5 -5 48 -175 78 -252 161 -408 459 -761 827 -981 51 -30
98 -53 105 -50 37 14 148 110 258 224 149 153 263 294 486 599 225 308 310
411 493 595 174 173 259 245 418 352 205 139 407 233 615 286 165 43 285 55
475 48 162 -5 163 -5 163 17 0 58 -94 152 -206 207 -173 84 -421 117 -674 88z"/>
</g>
</svg>
